# xmcd CD database file
#
# Track frame offsets:
#	150
#	14562
#	42875
#	60152
#	76855
#	92356
#	121973
#	145036
#	162173
#	172546
#	186002
#	210424
#	221361
#	230144
#	256059
#	273282
#	290111
#	301297
#
# Disc length: 4200 seconds
#
# Revision: 3
# Processed by: cddbd v1.5.1PL0 Copyright (c) Steve Scherf et al.
# Submitted via: CDex 1.51
#
DISCID=e4106612
DTITLE=Ella Fitzgerald - The 3 Divas - Ella Fitzgerald
DYEAR=2002
DGENRE=Jazz
TTITLE0=I've Got My Love To Keep Me Warm (with Louis Armstrong)
TTITLE1=Isn't This A Lovely Day?
TTITLE2=I Got Plenty O' Nuttin' (with Louis Armstrong)
TTITLE3=Moonlight In Vermont
TTITLE4=I'm Puttin' All My Eggs In One Basket
TTITLE5=April In Paris
TTITLE6=Tenderly
TTITLE7=They All Laughed
TTITLE8=How HighThe Moon
TTITLE9=You'll Have To Swing It
TTITLE10=Bess, You Is My Woman (with Louis Armstrong)
TTITLE11=That Old Black Magic
TTITLE12=Lover Come Back To Me
TTITLE13=Cheek To Cheek
TTITLE14=A Fine Romance
TTITLE15=Can't We Be Friends?
TTITLE16=A-Tisket, A-Tasket
TTITLE17=Basin Street Blues
EXTD=Box Set YEAR: 2002
EXTT0=
EXTT1=
EXTT2=
EXTT3=
EXTT4=
EXTT5=
EXTT6=
EXTT7=
EXTT8=
EXTT9=
EXTT10=
EXTT11=
EXTT12=
EXTT13=
EXTT14=
EXTT15=
EXTT16=
EXTT17=
PLAYORDER=
